<svg width="369" height="344" viewBox="0 0 369 344" fill="none" xmlns="http://www.w3.org/2000/svg">
<g clip-path="url(#clip0_1025_1198)">
<path d="M-5.54102 278.446C10.2372 306.676 24.1333 335.979 36.0006 366.121L44.552 387.84L67.4271 380.865C52.8981 330.986 32.4039 282.953 6.55677 237.967L-5.53682 278.446H-5.54102Z" fill="white"/>
<path d="M238.221 309.212C207.197 226.166 141.468 160.806 58.2511 130.254C48.7145 126.754 38.2055 132.019 35.2963 141.749L27.3149 168.457C53.9125 209.247 76.3768 252.74 94.251 298.137L120.45 364.687L226.853 332.232C236.57 329.268 241.772 318.724 238.217 309.208L238.221 309.212Z" fill="white"/>
<path d="M-5.54086 278.446L-27.5566 352.136C-19.6424 368.854 -12.4323 385.912 -5.96004 403.251L44.548 387.845L35.9965 366.125C24.1293 335.984 10.2374 306.68 -5.54505 278.451L-5.54086 278.446Z" fill="#FF9B9E"/>
<path d="M27.3193 168.461L6.55273 237.967C32.3999 282.953 52.894 330.986 67.4231 380.865L120.455 364.691L94.2554 298.141C76.3812 252.744 53.9169 209.251 27.3193 168.461Z" fill="#FF9B9E"/>
<path d="M166.885 23.3098L116.627 0.994948C110.842 -1.5736 104.07 1.03413 101.501 6.81949L57.8286 105.193C55.2602 110.979 57.8678 117.751 63.6528 120.319L113.911 142.634C119.696 145.203 126.468 142.595 129.036 136.81L172.709 38.4359C175.278 32.6505 172.67 25.8784 166.885 23.3098Z" fill="#FF9B9E"/>
<path d="M226.421 251.01L250.578 300.412C253.359 306.098 260.222 308.454 265.908 305.673L362.593 258.388C368.279 255.608 370.634 248.744 367.854 243.057L343.696 193.655C340.916 187.969 334.052 185.614 328.366 188.394L231.681 235.679C225.995 238.46 223.64 245.324 226.421 251.01Z" fill="#FF9B9E"/>
<path d="M342.782 83.1182L277.17 19.8864C272.613 15.494 265.357 15.6283 260.965 20.1863L144.271 141.287C139.879 145.845 140.014 153.101 144.571 157.493L210.183 220.725C214.741 225.118 221.996 224.983 226.388 220.425L343.082 99.3242C347.474 94.7662 347.34 87.5106 342.782 83.1182Z" fill="white"/>
</g>
<defs>
<clipPath id="clip0_1025_1198">
<rect width="410" height="410" fill="white" transform="translate(-41)"/>
</clipPath>
</defs>
</svg>
