<svg width="393" height="412" viewBox="0 0 393 412" fill="none" xmlns="http://www.w3.org/2000/svg">
<g filter="url(#filter0_d_1141_2914)">
<path d="M-120 353.37L-120 264.481C-120 264.481 -94.2545 243.148 101.5 264.481C297.255 285.815 323 264.481 323 264.481C307.845 287.726 297.471 300.287 270.177 320.482C288.41 335.182 300.055 342.32 323 353.37C323 353.37 289.708 384.037 101.5 353.37C-86.7084 322.704 -120 353.37 -120 353.37Z" fill="url(#paint0_linear_1141_2914)"/>
</g>
<g filter="url(#filter1_d_1141_2914)">
<path d="M544.365 95.0185L521.359 9.15832C521.359 9.15832 490.969 -4.78468 307.407 66.4867C123.844 137.758 93.4539 123.815 93.4539 123.815C114.108 142.345 127.38 151.793 158.971 164.236C145.164 183.154 135.763 193.062 116.46 209.675C116.46 209.675 156.554 230.68 330.413 152.347C504.271 74.0134 544.365 95.0185 544.365 95.0185Z" fill="url(#paint1_linear_1141_2914)"/>
</g>
<defs>
<filter id="filter0_d_1141_2914" x="-135" y="255" width="473" height="157" filterUnits="userSpaceOnUse" color-interpolation-filters="sRGB">
<feFlood flood-opacity="0" result="BackgroundImageFix"/>
<feColorMatrix in="SourceAlpha" type="matrix" values="0 0 0 0 0 0 0 0 0 0 0 0 0 0 0 0 0 0 127 0" result="hardAlpha"/>
<feOffset dy="30"/>
<feGaussianBlur stdDeviation="7.5"/>
<feComposite in2="hardAlpha" operator="out"/>
<feColorMatrix type="matrix" values="0 0 0 0 0.996078 0 0 0 0 0.898039 0 0 0 0 0.905882 0 0 0 1 0"/>
<feBlend mode="normal" in2="BackgroundImageFix" result="effect1_dropShadow_1141_2914"/>
<feBlend mode="normal" in="SourceGraphic" in2="effect1_dropShadow_1141_2914" result="shape"/>
</filter>
<filter id="filter1_d_1141_2914" x="78.454" y="8.05566" width="480.911" height="249.179" filterUnits="userSpaceOnUse" color-interpolation-filters="sRGB">
<feFlood flood-opacity="0" result="BackgroundImageFix"/>
<feColorMatrix in="SourceAlpha" type="matrix" values="0 0 0 0 0 0 0 0 0 0 0 0 0 0 0 0 0 0 127 0" result="hardAlpha"/>
<feOffset dy="30"/>
<feGaussianBlur stdDeviation="7.5"/>
<feComposite in2="hardAlpha" operator="out"/>
<feColorMatrix type="matrix" values="0 0 0 0 0.996078 0 0 0 0 0.898039 0 0 0 0 0.905882 0 0 0 1 0"/>
<feBlend mode="normal" in2="BackgroundImageFix" result="effect1_dropShadow_1141_2914"/>
<feBlend mode="normal" in="SourceGraphic" in2="effect1_dropShadow_1141_2914" result="shape"/>
</filter>
<linearGradient id="paint0_linear_1141_2914" x1="29.5902" y1="214.501" x2="328.87" y2="331.136" gradientUnits="userSpaceOnUse">
<stop stop-color="#FF969E"/>
<stop offset="1" stop-color="#F76570"/>
</linearGradient>
<linearGradient id="paint1_linear_1141_2914" x1="363.93" y1="-0.402006" x2="105.036" y2="189.718" gradientUnits="userSpaceOnUse">
<stop stop-color="#FF969E"/>
<stop offset="1" stop-color="#F76570"/>
</linearGradient>
</defs>
</svg>
